# xmcd
#
# Track frame offsets: 
#        150
#        20197
#        41172
#        74040
#        101160
#        130655
#        147325
#        173287
#        193927
#        218787
#        236050
#        270975
#
# Disc length: 3861 seconds
#
# Revision: 1
# Processed by: cddbd v1.5.2PL0 Copyright (c) Steve Scherf et al.
# Submitted via: ExactAudioCopy v1.0b3
#
DISCID=b70f130c
DTITLE=Sidney "Guitar Crusher" Selby - Message To Man
DYEAR=1995
DGENRE=Blues
TTITLE0="Guitar Crusher" - Heartfixing Man
TTITLE1="Guitar Crusher" - Long Green Folding Friend
TTITLE2="Guitar Crusher" - Message To Man
TTITLE3="Guitar Crusher" - Stealing A Little Love
TTITLE4="Guitar Crusher" - Darling I MIss You
TTITLE5="Guitar Crusher" - Day By Day
TTITLE6="Guitar Crusher" - You Know How To Hurt A Man
TTITLE7="Guitar Crusher" - Do It Well
TTITLE8="Guitar Crusher" - Trying To Fool The Whole Town
TTITLE9="Guitar Crusher" - I Wanna Be With You
TTITLE10="Guitar Crusher" - I Cant Stop Loving You
TTITLE11="Guitar Crusher" - Time TO Throw Down
EXTD=
EXTT0=
EXTT1=
EXTT2=
EXTT3=
EXTT4=
EXTT5=
EXTT6=
EXTT7=
EXTT8=
EXTT9=
EXTT10=
EXTT11=
PLAYORDER=
